<svg xmlns="http://www.w3.org/2000/svg" viewBox="0 0 512 512">
  <rect width="512" height="512" rx="115" fill="#6B4FBB"/>
  <rect x="80" y="110" width="190" height="17" rx="4" fill="white" opacity="0.95"/>
  <rect x="80" y="142" width="150" height="11" rx="3" fill="white" opacity="0.55"/>
  <rect x="80" y="167" width="168" height="11" rx="3" fill="white" opacity="0.55"/>
  <rect x="80" y="192" width="130" height="11" rx="3" fill="white" opacity="0.55"/>
  <rect x="80" y="228" width="190" height="17" rx="4" fill="white" opacity="0.95"/>
  <rect x="80" y="260" width="155" height="11" rx="3" fill="white" opacity="0.55"/>
  <rect x="80" y="285" width="140" height="11" rx="3" fill="white" opacity="0.55"/>
  <rect x="80" y="310" width="170" height="11" rx="3" fill="white" opacity="0.55"/>
  <circle cx="370" cy="340" r="95" fill="#4CAF82"/>
  <rect x="345" y="285" width="18" height="72" rx="3" fill="white"/>
  <polygon points="370,265 410,305 386,305 386,357 354,357 354,305 330,305" fill="white"/>
</svg>
